<svg xmlns="http://www.w3.org/2000/svg" width="212" height="32" viewBox="0 0 212 32"><title>engage-light-logo</title><g fill="none"><path d="M40.53 31.17h-4.9V5.338l4.9-4.454h20.487l4.9 4.454V31.17H60.57V5.338H40.53V31.17z" fill="#e5e5e5"></path><path d="M99.765.884v4.454H74.378v21.378h20.488V13.8l4.899 4.009V31.17H74.378l-4.899-4.454V5.338l4.9-4.454h25.386z" fill="#e5e5e5"></path><path d="M122.924.884L101.546 31.17h6.681l14.697-21.378 15.143 21.378h6.236L122.924.884z" fill="#e5e5e5"></path><path d="M175.924 17.809l-5.344-4.454v13.361h-20.042V5.338h25.386V.884h-25.832l-4.453 4.009v21.823l5.344 4.454h24.941V17.81z" fill="#e5e5e5"></path><path d="M4.911 1.33h25.17v4.297H0L4.911 1.33z" fill="#F8A900"></path><path d="M4.945 31.616h25.34v-4.502H0l4.945 4.502z" fill="#F8A900"></path><path d="M0 18.519h30.286v-4.502H0v4.502z" fill="#F8A900"></path><path d="M186.626 1.33h25.169v4.297h-30.081l4.912-4.297z" fill="#e5e5e5"></path><path d="M186.659 31.616H212v-4.502h-30.286l4.945 4.502z" fill="#e5e5e5"></path><path d="M181.714 18.519H212v-4.502h-30.286v4.502z" fill="#e5e5e5"></path></g></svg>