<?xml version="1.0" encoding="utf-8"?>
<!-- Generator: Adobe Illustrator 22.0.1, SVG Export Plug-In . SVG Version: 6.00 Build 0)  -->
<svg version="1.1" id="Layer_1" xmlns="http://www.w3.org/2000/svg" xmlns:xlink="http://www.w3.org/1999/xlink" x="0px" y="0px"
	 viewBox="0 0 845 121.9" style="enable-background:new 0 0 845 121.9;" xml:space="preserve">
<style type="text/css">
	.st0{fill:#170D18;}
	.st1{fill:#EFB101;}
</style>
<g>
	<path class="st0" d="M379.9,103.6c0-17,0-33.8,0-51.7c6.8,5.9,13,11.3,19.2,16.7c0.6,0.5,0.9,1.7,0.9,2.6c0.1,16.8,0,33.6,0,50.8
		c-2,0-3.6,0-5.3,0c-30.5,0-61,0.1-91.5-0.1c-2.6,0-5.7-1.4-7.8-3.1c-5-3.9-9.6-8.2-14.1-12.7c-1.4-1.4-2.6-3.9-2.6-5.9
		c-0.2-26.3-0.2-52.6,0-79c0-2,1.3-4.4,2.7-5.8c5.7-5.3,10.9-12.3,17.8-14.9C306-1.9,314.5,0,322.1,0c24.2,0,48.3,0,72.5,0
		c1.6,0,3.3,0,5.2,0c0,6,0,11.8,0,18c-33.6,0-67.1,0-100.9,0c0,28.7,0,57,0,85.7C325.7,103.6,352.5,103.6,379.9,103.6z"/>
	<path class="st0" d="M606.2,103.9c26.9,0,53.5,0,80.6,0c0-17.1,0-34.2,0-52.2c6.8,5.9,13,11.1,19,16.5c0.8,0.7,1.4,2.3,1.4,3.4
		c0.1,16.6,0.1,33.3,0.1,50.4c-1.9,0-3.5,0-5.1,0c-30.5,0-61,0.1-91.5-0.1c-2.5,0-5.5-1.2-7.5-2.8c-5.1-4-9.9-8.4-14.5-13
		c-1.4-1.4-2.6-3.9-2.6-5.8c-0.2-26.3-0.2-52.7,0-79c0-1.8,1.1-4.1,2.4-5.4c4.9-4.8,10-9.3,15.2-13.7c1.3-1.1,3.1-2,4.7-2
		c32.5-0.1,65-0.1,97.5,0c0.3,0,0.6,0.2,1.1,0.4c0,5.7,0,11.4,0,17.4c-33.6,0-67,0-100.8,0C606.2,46.6,606.2,75,606.2,103.9z"/>
	<path class="st0" d="M262.7,121.9c-6.9,0-13.2,0-19.8,0c0-34.5,0-69,0-103.6c-27.3,0-54.2,0-81.5,0c0,34.5,0,68.9,0,103.2
		c-7,0-13.5,0-20.3,0c0-10.2,0-19.8,0-29.5c0-23.2,0.1-46.3-0.1-69.5c0-3.1,0.7-5.5,3.3-7.2c0.1-0.1,0.2-0.2,0.4-0.3
		c5.6-5,10.5-11.8,17-14.3c6.6-2.5,14.8-0.7,22.3-0.7c18.2,0,36.3-0.1,54.5,0.1c2.4,0,5.2,1,7,2.5c5.9,4.9,13.5,9.2,16.4,15.6
		c2.9,6.4,0.9,15,0.9,22.6c0,25.2,0,50.3,0,75.5C262.7,118,262.7,119.7,262.7,121.9z"/>
	<path class="st0" d="M494.1,36.3c-9.3,13.2-18.3,26.1-27.4,39c-10.2,14.5-20.4,29.1-30.8,43.6c-1.1,1.5-3.6,2.9-5.5,3
		c-7,0.4-14,0.1-21.9,0.1c28.7-40.8,57-81.1,85.7-121.9c28.5,40.6,56.7,80.8,85.5,121.9c-8.6,0-16.5,0.1-24.3-0.2
		c-1.2,0-2.5-2-3.4-3.3c-18.3-26-36.5-52-54.7-77.9C496.4,39.3,495.4,38,494.1,36.3z"/>
	<path class="st0" d="M845,52.3c0,5.8,0,11.4,0,17.4c-40.4,0-80.9,0-121.7,0c0-5.6,0-11.3,0-17.4C763.7,52.3,804.3,52.3,845,52.3z"
		/>
	<path class="st1" d="M0,69.2C0,63.6,0,58.1,0,52c2.3,0,4.6,0,6.8,0c35.6,0,71.3,0,106.9-0.1c4.3,0,6.1,1.1,5.6,5.6
		c-0.4,3.8-0.1,7.6-0.1,11.8C79.3,69.2,39.8,69.2,0,69.2z"/>
	<path class="st1" d="M119.3,103.2c0,4.9,0.2,9.7-0.2,14.4c-0.1,1-2.7,2.5-4.2,2.6c-13.8,0.2-27.6,0.1-41.5,0.1
		c-16.3,0-32.6,0.1-49-0.2c-2.7,0-5.8-1.2-8-2.9c-5.3-4.1-10.2-8.8-16-14C40.6,103.2,79.7,103.2,119.3,103.2z"/>
	<path class="st0" d="M845,0c0,6.1,0,11.7,0,17.7c-40.1,0-80.2,0-121.1,0c6.5-5.9,12.5-11.3,18.6-16.6c0.9-0.8,2.4-1.1,3.6-1.1
		C778.9,0,811.7,0,845,0z"/>
	<path class="st0" d="M845,104.3c0,5.7,0,11.3,0,17.4c-1.1,0.1-2.4,0.3-3.6,0.3c-31.3,0-62.6,0-93.9,0c-1.7,0-3.8-0.3-5-1.3
		c-6.1-5.1-11.9-10.5-18.3-16.4C764.8,104.3,804.8,104.3,845,104.3z"/>
	<path class="st1" d="M-0.4,18.3C6.6,12,12.4,6.7,18.3,1.6c0.8-0.7,2.2-0.7,3.3-0.7c31.6,0,63.3-0.1,94.9,0c0.6,0,1.3,0.2,2.5,0.5
		c0,4.7,0.2,9.3-0.1,13.9c-0.1,1-1.8,2.6-3,2.8c-2.6,0.4-5.3,0.1-8,0.1C74.6,18.1,41.3,18.2,8,18.3C5.7,18.3,3.4,18.3-0.4,18.3z"/>
</g>
</svg>
